HIERARCHY
ROOT Hips
{
	OFFSET 0.000000 0.000000 0.000000 
	CHANNELS 6 Xposition Yposition Zposition Zrotation Yrotation Xrotation
	JOINT LeftUpLeg
	{
		OFFSET 1.363060 -1.794630 0.839290 
		CHANNELS 3 Zrotation Yrotation Xrotation
		JOINT LeftLeg
		{
			OFFSET 2.448110 -6.726130 0.000000 
			CHANNELS 3 Zrotation Yrotation Xrotation
			JOINT LeftFoot
			{
				OFFSET 2.562200 -7.039590 0.000000 
				CHANNELS 3 Zrotation Yrotation Xrotation
				JOINT LeftToeBase
				{
					OFFSET 0.157640 -0.433110 2.322550 
					CHANNELS 3 Zrotation Yrotation Xrotation
					End Site
					{
						OFFSET 0.000000 0.000000 0.000000 
					}
				}
			}
		}
	}
	JOINT RightUpLeg
	{
		OFFSET -1.305520 -1.794630 0.839290 
		CHANNELS 3 Zrotation Yrotation Xrotation
		JOINT RightLeg
		{
			OFFSET -2.542530 -6.985550 0.000000 
			CHANNELS 3 Zrotation Yrotation Xrotation
			JOINT RightFoot
			{
				OFFSET -2.568260 -7.056230 0.000000 
				CHANNELS 3 Zrotation Yrotation Xrotation
				JOINT RightToeBase
				{
					OFFSET -0.164730 -0.452590 2.363150 
					CHANNELS 3 Zrotation Yrotation Xrotation
					End Site
					{
						OFFSET 0.000000 0.000000 0.000000 
					}
				}
			}
		}
	}
	JOINT Spine
	{
		OFFSET 0.028270 2.035590 -0.193380 
		CHANNELS 3 Zrotation Yrotation Xrotation
		JOINT Spine1
		{
			OFFSET 0.056720 2.048850 -0.042750 
			CHANNELS 3 Zrotation Yrotation Xrotation
			JOINT Neck1
			{
				OFFSET -0.054170 1.746240 0.172020 
				CHANNELS 3 Zrotation Yrotation Xrotation
				JOINT Head
				{
					OFFSET 0.104070 1.761360 -0.123970 
					CHANNELS 3 Zrotation Yrotation Xrotation
					End Site
					{
						OFFSET 0.000000 0.000000 0.000000 
					}
				}
			}
			JOINT LeftArm
			{
				OFFSET 3.362410 1.200890 -0.311210 
				CHANNELS 3 Zrotation Yrotation Xrotation
				JOINT LeftForeArm
				{
					OFFSET 4.983000 -0.000000 -0.000000 
					CHANNELS 3 Zrotation Yrotation Xrotation
					JOINT LeftHand
					{
						OFFSET 3.483560 -0.000000 -0.000000 
						CHANNELS 3 Zrotation Yrotation Xrotation
						JOINT LeftHandIndex1
						{
							OFFSET 0.715260 -0.000000 -0.000000 
							CHANNELS 3 Zrotation Yrotation Xrotation
							End Site
							{
								OFFSET 0.000000 0.000000 0.000000 
							}
						}
					}
				}
			}
			JOINT RightArm
			{
				OFFSET -3.136600 1.374050 -0.404650 
				CHANNELS 3 Zrotation Yrotation Xrotation
				JOINT RightForeArm
				{
					OFFSET -5.241900 -0.000000 -0.000000 
					CHANNELS 3 Zrotation Yrotation Xrotation
					JOINT RightHand
					{
						OFFSET -3.444170 -0.000000 -0.000000 
						CHANNELS 3 Zrotation Yrotation Xrotation
						JOINT RightHandIndex1
						{
							OFFSET -0.622530 -0.000000 -0.000000 
							CHANNELS 3 Zrotation Yrotation Xrotation
							End Site
							{
								OFFSET 0.000000 0.000000 0.000000 
							}
						}
					}
				}
			}
		}
	}
}
MOTION
Frames: 16
Frame Time: 0.041667
1.904484 18.221497 -23.568019 -5.178564 -0.378259 5.457886 -7.081691 -20.047700 -43.478428 9.930446 17.175286 59.969910 0.402407 -5.064629 11.273819 0.743400 -5.507700 -15.362500 30.275833 5.338058 25.292055 0.173199 -0.921757 6.732504 0.738590 -23.899565 27.983290 -0.295300 -3.494400 9.658300 2.667778 2.351773 16.846310 -4.837721 1.619111 -17.384038 4.149998 -1.677067 -9.877914 1.092400 -1.042700 -3.243600 -78.286347 37.645838 44.198739 120.001322 -63.504728 -86.368213 0.788559 -0.817528 -26.492832 -7.125000 0.000000 0.000000 71.209444 -2.908812 45.324203 -129.343394 57.346012 -95.228340 -0.337940 1.199161 -3.650268 7.125000 0.000000 0.000000 
1.918312 18.293500 -23.010660 -5.334263 -0.586388 5.295923 -6.853157 -19.905475 -42.220629 8.173543 16.123518 54.211410 0.443166 -4.484788 12.129274 0.708500 -5.379700 -14.994800 30.225630 5.064237 26.476569 0.125377 -1.028094 6.769011 0.080402 -23.597605 31.147959 -0.641800 -5.125200 14.266000 2.909412 2.338904 17.695042 -4.912082 1.671534 -16.771050 4.399868 -1.498263 -9.680050 1.201000 -0.949900 -3.099000 -79.415884 37.752274 42.800219 120.179075 -63.429770 -86.492266 0.793547 -0.810756 -25.813245 -7.125000 0.000000 0.000000 70.792623 -2.739610 46.204786 -129.164156 57.388991 -95.126605 -0.322548 1.198688 -3.404900 7.125000 0.000000 0.000000 
1.914954 18.335477 -22.531131 -5.294983 1.047551 5.879385 -6.361946 -21.279547 -42.057747 6.585796 14.982124 48.728963 0.536270 -4.156774 13.883331 0.534300 -4.683900 -13.009200 30.678956 3.834936 24.949709 -0.244194 -1.943829 9.501874 -0.242605 -21.287087 31.741741 -1.001700 -6.368800 17.858400 2.917618 1.804034 17.223806 -4.886164 1.383655 -16.785174 4.355275 -1.609368 -9.452131 1.190200 -0.991100 -2.969000 -79.848600 37.830919 42.048488 120.598227 -63.317533 -86.783093 0.805642 -0.810751 -25.363939 -7.125000 0.000000 0.000000 70.539063 -2.851337 46.760154 -128.857333 57.533155 -94.916424 -0.311313 1.195643 -3.210005 7.125000 0.000000 0.000000 
1.933029 18.375973 -22.000341 -5.471459 0.715064 5.453308 -6.068575 -20.936733 -40.229763 5.067313 13.647329 43.152307 0.567563 -3.297344 14.663596 0.539200 -4.704900 -13.068900 31.100382 3.856282 25.489990 -0.569936 -2.682953 11.823513 -0.538720 -18.389374 32.043499 -1.030900 -6.458300 18.120100 1.915506 2.358798 17.338174 -5.155010 1.563396 -16.868624 3.912144 -2.013201 -9.644177 0.991000 -1.193700 -3.048100 -79.247120 37.975226 42.207184 121.245176 -63.124301 -87.225098 0.816119 -0.823808 -25.286470 -7.125000 0.000000 0.000000 70.856857 -3.574199 46.823906 -128.551049 57.679312 -94.714028 -0.296625 1.207420 -2.987584 7.125000 0.000000 0.000000 
1.934807 18.397999 -21.491774 -5.902912 1.177013 5.777781 -5.262523 -21.211826 -39.267245 3.733843 12.254979 37.793551 0.539527 -1.916057 15.172381 0.912500 -6.086900 -17.036700 32.040464 3.737315 24.550647 -1.028878 -3.651624 15.013253 -0.667243 -15.228949 31.477009 -0.837600 -5.838000 16.315000 1.914217 2.402008 17.322579 -5.353182 1.548757 -16.519011 3.446705 -2.232458 -10.040501 0.826600 -1.295400 -3.120500 -79.166214 37.579653 42.024037 121.648339 -62.959401 -87.535476 0.829524 -0.846823 -25.084186 -7.125000 0.000000 0.000000 70.873996 -3.816175 47.032002 -128.013397 57.894802 -94.357735 -0.271322 1.216865 -3.090692 7.125000 0.000000 0.000000 
1.937671 18.416568 -20.972046 -6.469233 1.254833 5.296712 -4.653939 -21.016812 -37.463136 2.618427 10.807262 32.823647 0.462212 -0.289786 15.797004 1.109300 -6.691700 -18.805000 32.958555 3.693301 24.338302 -1.525063 -4.621767 18.257232 -0.711688 -12.881503 30.730473 -0.764400 -5.583400 15.580300 2.544518 2.325601 18.599133 -5.504242 1.560637 -16.198834 3.244861 -2.257692 -10.263519 0.760000 -1.296900 -3.074400 -79.832152 36.327986 41.395547 121.337468 -62.961103 -87.394670 0.849663 -0.896084 -24.776953 -7.125000 0.000000 0.000000 70.855913 -3.415430 47.348266 -126.995541 58.268100 -93.662222 -0.236468 1.221541 -3.064556 7.125000 0.000000 0.000000 
1.937474 18.421704 -20.462293 -7.176689 1.267134 5.075658 -3.688707 -20.985867 -35.990413 1.727095 9.451764 28.418736 0.379496 1.002204 16.195332 1.189800 -6.922000 -19.484400 34.066631 3.899849 23.743866 -2.144558 -5.719936 21.922129 -0.816774 -11.336969 30.528365 -0.866200 -5.934500 16.594400 3.286362 2.270865 19.578815 -5.687090 1.577374 -15.879248 3.036475 -2.232236 -10.364839 0.685000 -1.269700 -2.973700 -80.393584 34.987093 40.975617 121.240489 -62.912846 -87.393185 0.866981 -0.925627 -24.604117 -7.125000 0.000000 0.000000 70.816595 -3.107877 47.675079 -125.786852 58.705030 -92.831700 -0.199679 1.229020 -2.841079 7.125000 0.000000 0.000000 
1.928189 18.410246 -19.959356 -7.628680 1.155081 4.820147 -3.093123 -20.723386 -34.441977 1.034656 8.219151 24.666572 0.283566 1.847066 16.114541 1.133400 -6.761500 -19.010800 34.916901 4.051255 23.056552 -2.879199 -6.896704 25.952751 -0.887878 -10.510907 30.237952 -0.990500 -6.334300 17.757500 3.818978 2.309130 20.311489 -5.649688 1.662622 -15.738706 3.068940 -2.186224 -10.260847 0.689500 -1.237300 -2.835700 -80.711853 33.939639 40.924865 121.590726 -62.776899 -87.659498 0.876657 -0.911881 -24.559221 -7.125000 0.000000 0.000000 70.863924 -3.110643 47.854169 -124.193505 59.264352 -91.732410 -0.151837 1.243413 -2.377747 7.125000 0.000000 0.000000 
1.927103 18.406394 -19.414738 -7.859043 -0.341107 4.878091 -2.778368 -19.530826 -33.067678 0.523683 7.233195 21.763709 0.189114 2.117464 15.214779 1.734000 -8.288400 -23.593600 35.192497 5.261537 22.371568 -3.733230 -8.118196 30.324373 -0.964346 -9.933336 29.958519 -0.936500 -6.164100 17.261200 3.697362 2.897590 21.184417 -5.491616 2.059416 -14.954555 3.231178 -2.101558 -10.343339 0.724400 -1.202600 -2.753000 -80.951150 32.577233 40.814027 121.752610 -62.673133 -87.771286 0.872193 -0.863802 -24.758135 -7.125000 0.000000 0.000000 71.104299 -3.176668 47.994816 -122.035188 59.949690 -90.261179 -0.077781 1.273904 -1.417858 7.125000 0.000000 0.000000 
1.920485 18.368664 -18.926715 -7.894314 -0.334617 4.912363 -2.893461 -19.067981 -32.357313 0.221406 6.561902 19.730855 -0.078104 4.070961 15.168944 1.093100 -6.644200 -18.665400 35.538378 5.337883 20.812700 -4.728329 -9.361041 35.034840 -1.056963 -9.898030 29.822168 -0.780300 -5.639500 15.742000 3.218208 2.830127 21.436286 -5.429209 2.022297 -14.841754 3.726452 -1.884966 -11.022130 0.874000 -1.130900 -2.939700 -80.982618 31.217992 40.615054 121.831221 -62.605404 -87.799600 0.852351 -0.807077 -24.986481 -7.125000 0.000000 0.000000 71.454756 -3.412637 48.260253 -119.724934 60.658947 -88.659278 0.004464 1.291981 -1.064336 7.125000 0.000000 0.000000 
1.928189 18.309205 -18.427630 -7.524865 -0.212095 4.717566 -3.794736 -18.289798 -31.538323 0.013831 6.099947 18.427827 -0.265767 5.120969 14.863098 0.871500 -5.952000 -16.645100 35.442394 5.187407 19.318602 -5.847870 -10.584475 40.011542 -1.068346 -10.607411 29.316469 -0.503500 -4.548600 12.625500 1.882635 2.792166 21.760972 -5.320850 1.951817 -14.696461 3.800057 -1.828101 -11.824416 0.853400 -1.140200 -3.212200 -80.542911 29.984670 40.791116 122.032522 -62.486161 -87.941219 0.844498 -0.786971 -25.179862 -7.125000 0.000000 0.000000 72.060348 -3.878196 48.328189 -117.370381 61.316201 -87.013476 0.089691 1.307303 -1.082308 7.125000 0.000000 0.000000 
1.926214 18.245695 -17.932792 -7.026533 -0.197482 4.267015 -5.264644 -16.750079 -30.623641 -0.147726 5.762011 17.575170 -0.306022 5.286751 14.916090 1.412000 -7.515700 -21.252400 35.297444 5.141084 17.922171 -7.099260 -11.769958 45.217607 -1.093721 -11.946096 29.028590 -0.351300 -3.808400 10.538200 0.760948 2.790080 22.082058 -5.036605 1.937971 -14.688431 4.026374 -1.691543 -12.170956 0.898900 -1.103000 -3.382000 -80.078000 28.680934 41.123005 122.010217 -62.428473 -87.945189 0.841464 -0.786700 -25.733538 -7.125000 0.000000 0.000000 72.533320 -4.520301 48.244190 -114.659265 61.960620 -85.152369 0.184525 1.348045 -1.028980 7.125000 0.000000 0.000000 
1.915645 18.169050 -17.458794 -6.241137 0.341362 3.755846 -7.026223 -15.483591 -29.879616 -0.239497 5.570436 17.173504 -0.266496 5.195577 15.494337 1.805000 -8.447500 -24.081800 34.910516 4.686610 16.116680 -8.480128 -12.882323 50.615235 -1.186195 -13.596384 29.221934 -0.693000 -5.321800 14.828700 -0.437569 2.565968 22.340031 -4.578230 1.816764 -15.005480 4.562842 -1.480712 -11.520917 1.026600 -1.012200 -3.201900 -79.602651 27.039220 41.537305 121.603265 -62.480144 -87.677423 0.828964 -0.787455 -26.307983 -7.125000 0.000000 0.000000 73.024553 -5.067136 47.985060 -111.082414 62.654726 -82.715556 0.320917 1.403178 -0.987913 7.125000 0.000000 0.000000 
1.917028 18.088355 -16.945388 -5.089681 0.021054 3.456359 -8.910664 -14.139909 -29.218187 -0.222751 5.650583 17.572372 -0.295048 4.915613 14.891332 2.258700 -9.385400 -27.008400 33.762697 4.836444 14.372751 -9.927474 -13.868039 56.017516 -1.398593 -14.666434 29.930975 -1.068300 -6.570800 18.450000 -1.979240 2.737194 22.678979 -3.930585 1.931906 -14.838196 4.998260 -1.343742 -10.807352 1.114000 -0.949500 -2.960000 -79.090268 25.357445 42.161816 121.471558 -62.442581 -87.605180 0.814387 -0.774294 -26.726821 -7.125000 0.000000 0.000000 73.481913 -5.638477 47.729916 -107.035171 63.209205 -79.958586 0.515373 1.433074 -1.170073 7.125000 0.000000 0.000000 
1.911596 17.985436 -16.454204 -3.953292 0.263897 3.015363 -10.877020 -13.026438 -28.644540 -0.140212 5.865004 18.470519 -0.047285 2.960935 14.791289 2.080500 -9.031800 -25.894800 32.510949 4.379860 12.269880 -11.457272 -14.737867 61.497039 -1.618564 -15.920837 30.720947 -1.065300 -6.561800 18.423600 -3.062274 2.593197 22.647937 -3.173691 1.906883 -14.990078 4.998462 -1.233444 -11.012187 1.120100 -0.907100 -3.122800 -78.683979 23.920283 42.826092 121.403369 -62.418847 -87.574224 0.804710 -0.753976 -27.007168 -7.125000 0.000000 0.000000 73.600969 -6.406763 47.819927 -102.752775 63.542615 -77.029024 0.732118 1.445314 -1.590076 7.125000 0.000000 0.000000 
1.913374 17.899901 -15.956699 -3.042595 0.849013 2.645396 -12.686787 -12.070743 -28.006819 0.074747 6.344933 20.267219 0.436058 -1.055946 14.876134 1.010600 -6.396300 -17.938700 31.278476 3.563824 9.892368 -12.990119 -15.451072 66.801172 -1.747692 -17.478078 31.192819 -1.179300 -6.892300 19.396600 -3.787199 2.221592 22.594054 -2.561047 1.755725 -15.044031 4.919063 -1.146442 -11.233956 1.117700 -0.871500 -3.302400 -78.395461 22.402275 43.410867 121.555995 -62.334044 -87.687354 0.786719 -0.713925 -27.311168 -7.125000 0.000000 0.000000 73.667525 -7.330734 47.995630 -98.561375 63.606947 -74.112196 0.914875 1.471466 -1.583768 7.125000 0.000000 0.000000 
